# This file uses centimeters as units for non-parametric coordinates.

mtllib leftback.mtl
g default
v 2.264523 3.570660 -5.515400
v 2.264523 3.577890 -5.515540
v 2.264523 3.594040 -5.349340
vn 1.000000 0.000012 0.000000
vn 1.000000 0.000012 0.000000
vn 1.000000 0.000012 0.000000
s off
g stabs5
usemtl blue
f 1//1 2//2 3//3
g default
v 2.264362 3.570270 -5.175820
v 2.264213 3.569880 -4.836240
v 1.083712 3.665260 -3.317640
v 1.083763 3.678580 -4.364530
v 1.083813 3.718440 -5.413860
v 2.264523 3.577890 -5.515540
v 2.264523 3.570660 -5.515400
v 1.083813 3.691900 -5.411430
v 1.083813 3.735550 -4.900240
v 2.264523 3.594040 -5.349340
v 1.083823 3.745720 -4.386620
v 2.264532 3.594040 -5.182820
v 1.083373 3.747990 -3.852120
v 2.264083 3.594040 -5.009530
vn -0.095596 -0.995372 -0.009856
vn -0.095596 -0.995371 -0.009856
vn -0.095596 -0.995371 -0.009856
vn -0.095596 -0.995372 -0.009856
vn -0.073440 -0.083321 -0.993813
vn -0.094815 -0.075545 -0.992624
vn -0.094815 -0.075545 -0.992624
vn -0.063974 -0.065638 -0.995791
vn 0.105593 0.993798 -0.034854
vn 0.111398 0.993270 -0.031723
vn 0.107282 0.993041 -0.048583
vn 0.089908 0.994717 -0.049546
vn 0.143082 0.989548 -0.017977
vn 0.120692 0.992650 -0.008938
vn 0.111398 0.993270 -0.031723
vn 0.105593 0.993798 -0.034854
vn 0.204225 0.978868 0.010483
vn 0.175251 0.983284 0.049403
vn 0.120692 0.992650 -0.008938
vn 0.143082 0.989548 -0.017977
s off
g stabs6
usemtl blue
f 4//4 5//5 6//6 7//7
f 8//8 9//9 10//10 11//11
f 12//12 13//13 9//14 8//15
f 14//16 15//17 13//18 12//19
f 16//20 17//21 15//22 14//23
g default
v 1.082933 3.764940 -3.317620
v 1.083532 3.689180 -3.317630
v 1.083373 3.747990 -3.852120
vn 0.999969 0.007920 0.000572
vn 0.999969 0.007920 0.000572
vn 0.999969 0.007920 0.000572
s off
g f16body78
usemtl blue
f 18//24 19//25 20//26
g default
v 1.083532 3.689180 -3.317630
v 1.083712 3.665260 -3.317640
v 2.264213 3.569880 -4.836240
v 2.264003 3.578670 -4.836240
v 2.264083 3.594040 -5.009530
v 1.083373 3.747990 -3.852120
vn 0.789786 0.009229 0.613313
vn 0.789786 0.009229 0.613313
vn 0.789786 0.009229 0.613313
vn 0.789786 0.009229 0.613313
vn 0.223684 0.969355 0.101568
vn 0.175251 0.983284 0.049403
vn 0.204225 0.978868 0.010483
vn 0.223684 0.969355 0.101568
s off
g stabs7
usemtl blue
f 21//27 22//28 23//29 24//30
f 24//31 25//32 26//33 21//34
g default
v 1.083763 3.678580 -4.364530
v 1.083792 3.685240 -4.887980
v 2.264443 3.570470 -5.345610
v 2.264362 3.570270 -5.175820
v 1.083813 3.691900 -5.411430
v 2.264523 3.570660 -5.515400
vn -0.099303 -0.995008 -0.009863
vn -0.099303 -0.995008 -0.009863
vn -0.099303 -0.995008 -0.009863
vn -0.099303 -0.995008 -0.009863
vn -0.019572 -0.999482 -0.025537
vn -0.038201 -0.998943 -0.025549
vn -0.101764 -0.994760 -0.009845
vn -0.100534 -0.994885 -0.009854
s off
g stabs8
usemtl blue
f 27//35 28//36 29//37 30//38
f 28//39 31//40 32//41 29//42
g default
v 2.264083 3.594040 -5.009530
v 2.264003 3.578670 -4.836240
v 2.264213 3.569880 -4.836240
v 2.264362 3.570270 -5.175820
v 2.264532 3.594040 -5.182820
v 2.264443 3.570470 -5.345610
v 2.264523 3.594040 -5.349340
v 2.264523 3.570660 -5.515400
vn 0.999711 0.023882 0.002580
vn 0.999712 0.023882 0.002580
vn 0.999712 0.023882 0.002580
vn 0.999998 -0.001594 0.001170
vn 0.999984 -0.005616 0.001002
vn 0.999960 0.008706 0.001876
vn 0.999867 0.016252 0.001516
vn 0.999998 -0.001594 0.001170
vn 0.999960 0.008706 0.001876
vn 0.999984 -0.005616 0.001002
vn 0.999998 -0.001594 0.001170
vn 0.999989 -0.004606 0.000294
vn 0.999997 -0.002264 0.000140
vn 0.999984 -0.005616 0.001002
vn 0.999989 -0.004606 0.000294
vn 0.999997 -0.002264 0.000140
vn 0.999989 -0.004606 0.000294
vn 0.999999 -0.001673 0.000237
s off
g stabs9
usemtl blue
f 33//43 34//44 35//45
f 36//46 37//47 33//48
f 35//49 36//50 33//51
f 37//52 36//53 38//54
f 39//55 37//56 38//57
f 39//58 38//59 40//60
