# This file uses centimeters as units for non-parametric coordinates.

mtllib rightwing.mtl
g default
v -1.023793 3.697760 0.144361
v -1.023793 3.702930 0.648163
v -1.023783 3.707211 0.144360
vn -1.000000 0.001042 -0.000011
vn -0.999999 0.001042 -0.000011
vn -1.000000 0.001042 -0.000011
s off
g f16body
usemtl blue
f 1//1 2//2 3//3
g default
v -1.023773 3.761761 -0.410235
v -2.325403 3.733921 -1.289580
v -2.325733 3.703390 -0.870825
v -1.023783 3.707211 0.144360
v -2.325743 3.694851 -0.870824
v -1.023793 3.697760 0.144361
v -2.325723 3.649040 -1.288560
v -1.023803 3.620781 -0.410213
v -2.325613 3.642441 -1.885770
v -1.023663 3.609329 -1.376750
v -2.325723 3.650669 -2.334970
v -1.023783 3.622869 -2.049970
v -2.325713 3.665960 -2.864080
v -1.023763 3.647980 -2.842960
v -1.022083 3.797729 -1.977860
v -2.324163 3.741091 -2.333190
v -2.323623 3.742140 -1.883010
v -1.021673 3.784010 -1.372610
vn -0.075245 0.993380 0.086805
vn -0.075245 0.993380 0.086805
vn -0.075245 0.993380 0.086805
vn -0.075245 0.993380 0.086805
vn -0.614896 0.000764 0.788608
vn -0.614894 0.000595 0.788609
vn -0.614894 0.000595 0.788609
vn -0.614896 0.000764 0.788608
vn -0.074811 -0.994926 0.067268
vn -0.086246 -0.990689 0.105340
vn -0.057900 -0.996618 0.058308
vn -0.006541 -0.998568 0.053094
vn -0.006541 -0.998568 0.053094
vn -0.057900 -0.996618 0.058308
vn -0.023382 -0.999722 -0.002908
vn 0.048408 -0.998813 -0.005343
vn 0.048408 -0.998813 -0.005343
vn -0.023382 -0.999722 -0.002908
vn -0.015242 -0.999597 -0.023962
vn 0.042842 -0.998883 -0.019940
vn 0.042842 -0.998883 -0.019940
vn -0.015242 -0.999597 -0.023962
vn -0.013111 -0.999434 -0.030996
vn 0.019283 -0.999616 -0.019918
vn -0.098246 0.994579 -0.034069
vn -0.017276 0.998154 -0.058234
vn -0.036762 0.999297 0.007392
vn -0.117089 0.993030 0.013467
vn -0.117089 0.993030 0.013467
vn -0.036762 0.999297 0.007392
vn -0.056238 0.997000 0.053180
vn -0.182018 0.982438 0.041054
s off
g wings
usemtl blue
f 4//4 5//5 6//6 7//7
f 7//8 6//9 8//10 9//11
f 9//12 8//13 10//14 11//15
f 11//16 10//17 12//18 13//19
f 13//20 12//21 14//22 15//23
f 15//24 14//25 16//26 17//27
f 18//28 19//29 20//30 21//31
f 21//32 20//33 5//34 4//35
g default
v -1.023753 3.662600 -2.847850
v -1.023763 3.647980 -2.842960
v -2.325713 3.665960 -2.864080
v -2.325703 3.675911 -2.867580
v -2.324163 3.741091 -2.333190
v -1.022083 3.797729 -1.977860
vn 0.010962 -0.323132 -0.946291
vn 0.010962 -0.323132 -0.946291
vn 0.010962 -0.323132 -0.946291
vn 0.010962 -0.323132 -0.946291
vn 0.003866 0.989972 -0.141211
vn 0.002089 0.993059 -0.117602
vn -0.017276 0.998154 -0.058234
vn -0.098246 0.994579 -0.034069
s off
g wings1
usemtl blue
f 22//36 23//37 24//38 25//39
f 22//40 25//41 26//42 27//43
g default
v -2.325733 3.703390 -0.870825
v -3.627683 3.699570 -1.886010
v -3.627683 3.691931 -1.886010
v -2.325743 3.694851 -0.870824
v -2.325403 3.733921 -1.289580
v -3.627033 3.706079 -2.168920
v -2.323623 3.742140 -1.883010
v -3.625703 3.699329 -2.435080
v -2.324163 3.741091 -2.333190
v -3.626483 3.693830 -2.681930
v -2.325703 3.675911 -2.867580
v -3.627663 3.689220 -2.887310
v -2.325713 3.665960 -2.864080
v -3.627663 3.683929 -2.885210
v -2.325723 3.650669 -2.334970
v -3.628123 3.676710 -2.698810
v -2.325613 3.642441 -1.885770
v -3.627693 3.674629 -2.436180
v -2.325723 3.649040 -1.288560
v -3.627653 3.677299 -2.166910
vn -0.614899 0.000426 0.788606
vn -0.614899 0.000426 0.788606
vn -0.614899 0.000426 0.788606
vn -0.614899 0.000426 0.788606
vn -0.039213 0.998863 0.027104
vn -0.039213 0.998863 0.027104
vn -0.050387 0.997345 0.052579
vn -0.050387 0.997345 0.052579
vn -0.028008 0.999606 0.001608
vn -0.028008 0.999606 0.001608
vn -0.039213 0.998863 0.027104
vn -0.039213 0.998863 0.027104
vn -0.017276 0.998154 -0.058234
vn -0.015529 0.998543 -0.051681
vn -0.031337 0.999465 -0.009332
vn -0.036762 0.999297 0.007392
vn 0.002089 0.993059 -0.117602
vn 0.000310 0.995579 -0.093925
vn -0.015529 0.998543 -0.051681
vn -0.017276 0.998154 -0.058234
vn 0.010774 -0.334042 -0.942497
vn 0.010585 -0.344890 -0.938583
vn 0.010585 -0.344890 -0.938583
vn 0.010774 -0.334042 -0.942497
vn -0.015242 -0.999597 -0.023962
vn -0.014757 -0.999627 -0.022960
vn -0.012240 -0.999430 -0.031451
vn -0.013111 -0.999434 -0.030996
vn -0.023382 -0.999722 -0.002908
vn -0.023173 -0.999730 -0.001888
vn -0.014757 -0.999627 -0.022960
vn -0.015242 -0.999597 -0.023962
vn -0.057900 -0.996618 0.058308
vn -0.050672 -0.997543 0.048371
vn -0.023173 -0.999730 -0.001888
vn -0.023382 -0.999722 -0.002908
vn -0.086246 -0.990689 0.105340
vn -0.072180 -0.993681 0.085959
vn -0.050672 -0.997543 0.048371
vn -0.057900 -0.996618 0.058308
s off
g wings2
usemtl blue
f 28//44 29//45 30//46 31//47
f 32//48 33//49 29//50 28//51
f 34//52 35//53 33//54 32//55
f 36//56 37//57 35//58 34//59
f 38//60 39//61 37//62 36//63
f 40//64 41//65 39//66 38//67
f 42//68 43//69 41//70 40//71
f 44//72 45//73 43//74 42//75
f 46//76 47//77 45//78 44//79
f 31//80 30//81 47//82 46//83
g default
v -3.627033 3.706079 -2.168920
v -3.625703 3.699329 -2.435080
v -3.627693 3.674629 -2.436180
v -3.627653 3.677299 -2.166910
v -3.627683 3.691931 -1.886010
v -3.627683 3.699570 -1.886010
v -3.626483 3.693830 -2.681930
v -3.627663 3.689220 -2.887310
v -3.627663 3.683929 -2.885210
v -3.628123 3.676710 -2.698810
vn -0.998808 0.048702 -0.003263
vn -0.998808 0.048702 -0.003263
vn -0.998808 0.048702 -0.003263
vn -0.998808 0.048702 -0.003263
vn -0.999458 0.032835 -0.002357
vn -0.999855 0.016960 -0.001450
vn -0.999855 0.016960 -0.001450
vn -0.999458 0.032835 -0.002357
vn -0.996906 0.078576 0.002050
vn -0.997441 0.071456 0.002308
vn -0.997441 0.071456 0.002308
vn -0.996906 0.078576 0.002050
vn -0.997739 0.067208 -0.000736
vn -0.997739 0.067208 -0.000736
vn -0.996906 0.078576 0.002050
vn -0.996906 0.078576 0.002050
s off
g wings3
usemtl blue
f 48//84 49//85 50//86 51//87
f 51//88 52//89 53//90 48//91
f 54//92 55//93 56//94 57//95
f 50//96 49//97 54//98 57//99
