# This file uses centimeters as units for non-parametric coordinates.

mtllib rightback.mtl
g default
v -2.130215 3.594040 -5.349340
v -2.130215 3.577890 -5.515540
v -2.130215 3.570660 -5.515400
vn -1.000000 0.000000 0.000000
vn -1.000000 0.000000 0.000000
vn -1.000000 0.000000 0.000000
s off
g stabs
usemtl blue
f 1//1 2//2 3//3
g default
v -0.949455 3.678580 -4.364530
v -0.949405 3.665260 -3.317640
v -2.129904 3.569880 -4.836240
v -2.130054 3.570270 -5.175820
v -0.949504 3.691900 -5.411430
v -2.130215 3.570660 -5.515400
v -2.130215 3.577890 -5.515540
v -0.949504 3.718440 -5.413860
v -2.130215 3.594040 -5.349340
v -0.949504 3.735550 -4.900240
v -2.130224 3.594040 -5.182820
v -0.949514 3.745720 -4.386620
v -2.129775 3.594040 -5.009530
v -0.949065 3.747990 -3.852120
vn 0.095596 -0.995372 -0.009856
vn 0.095596 -0.995371 -0.009856
vn 0.095596 -0.995372 -0.009856
vn 0.095596 -0.995371 -0.009856
vn 0.063975 -0.065638 -0.995791
vn 0.094818 -0.075548 -0.992624
vn 0.094818 -0.075548 -0.992624
vn 0.073441 -0.083322 -0.993813
vn -0.089908 0.994717 -0.049546
vn -0.107282 0.993041 -0.048584
vn -0.111398 0.993269 -0.031724
vn -0.105594 0.993798 -0.034854
vn -0.105594 0.993798 -0.034854
vn -0.111398 0.993269 -0.031724
vn -0.120692 0.992650 -0.008938
vn -0.143082 0.989548 -0.017977
vn -0.143082 0.989548 -0.017977
vn -0.120692 0.992650 -0.008938
vn -0.175251 0.983284 0.049403
vn -0.204225 0.978868 0.010483
s off
g stabs1
usemtl blue
f 4//4 5//5 6//6 7//7
f 8//8 9//9 10//10 11//11
f 11//12 10//13 12//14 13//15
f 13//16 12//17 14//18 15//19
f 15//20 14//21 16//22 17//23
g default
v -0.949065 3.747990 -3.852120
v -0.949224 3.689180 -3.317630
v -0.948624 3.764940 -3.317620
vn -0.999969 0.007919 0.000572
vn -0.999969 0.007919 0.000572
vn -0.999969 0.007919 0.000572
s off
g f16body38
usemtl blue
f 18//24 19//25 20//26
g default
v -2.129694 3.578670 -4.836240
v -2.129904 3.569880 -4.836240
v -0.949405 3.665260 -3.317640
v -0.949224 3.689180 -3.317630
v -0.949065 3.747990 -3.852120
v -2.129775 3.594040 -5.009530
vn -0.789786 0.009219 0.613313
vn -0.789786 0.009219 0.613313
vn -0.789786 0.009219 0.613313
vn -0.789786 0.009219 0.613313
vn -0.223684 0.969355 0.101568
vn -0.204225 0.978868 0.010483
vn -0.175251 0.983284 0.049403
vn -0.223684 0.969355 0.101568
s off
g stabs2
usemtl blue
f 21//27 22//28 23//29 24//30
f 24//31 25//32 26//33 21//34
g default
v -2.130054 3.570270 -5.175820
v -2.130135 3.570470 -5.345610
v -0.949484 3.685240 -4.887980
v -0.949455 3.678580 -4.364530
v -2.130215 3.570660 -5.515400
v -0.949504 3.691900 -5.411430
vn 0.099303 -0.995008 -0.009861
vn 0.099303 -0.995008 -0.009861
vn 0.099303 -0.995008 -0.009861
vn 0.099303 -0.995008 -0.009861
vn 0.100534 -0.994885 -0.009853
vn 0.101764 -0.994760 -0.009844
vn 0.038201 -0.998943 -0.025549
vn 0.019572 -0.999482 -0.025536
s off
g stabs3
usemtl blue
f 27//35 28//36 29//37 30//38
f 28//39 31//40 32//41 29//42
g default
v -2.129904 3.569880 -4.836240
v -2.129694 3.578670 -4.836240
v -2.129775 3.594040 -5.009530
v -2.130224 3.594040 -5.182820
v -2.130054 3.570270 -5.175820
v -2.130135 3.570470 -5.345610
v -2.130215 3.594040 -5.349340
v -2.130215 3.570660 -5.515400
vn -0.999712 0.023863 0.002579
vn -0.999712 0.023863 0.002579
vn -0.999712 0.023863 0.002579
vn -0.999960 0.008690 0.001875
vn -0.999984 -0.005595 0.001000
vn -0.999998 -0.001600 0.001170
vn -0.999960 0.008690 0.001875
vn -0.999998 -0.001600 0.001170
vn -0.999867 0.016232 0.001515
vn -0.999990 -0.004575 0.000291
vn -0.999998 -0.001600 0.001170
vn -0.999984 -0.005595 0.001000
vn -0.999990 -0.004575 0.000291
vn -0.999984 -0.005595 0.001000
vn -0.999997 -0.002241 0.000137
vn -0.999999 -0.001668 0.000234
vn -0.999990 -0.004575 0.000291
vn -0.999997 -0.002241 0.000137
s off
g stabs4
usemtl blue
f 33//43 34//44 35//45
f 35//46 36//47 37//48
f 35//49 37//50 33//51
f 38//52 37//53 36//54
f 38//55 36//56 39//57
f 40//58 38//59 39//60
g default
v 2.418256 3.570660 -5.515400
v 2.418256 3.577890 -5.515540
v 2.418256 3.594040 -5.349340
vn 1.000000 0.000012 0.000000
vn 1.000000 0.000012 0.000000
vn 1.000000 0.000012 0.000000
s off
g stabs5
usemtl blue
f 41//61 42//62 43//63
g default
v 2.417816 3.594040 -5.009530
v 2.417736 3.578670 -4.836240
v 2.417946 3.569880 -4.836240
v 2.418096 3.570270 -5.175820
v 2.418265 3.594040 -5.182820
v 2.418176 3.570470 -5.345610
v 2.418256 3.594040 -5.349340
v 2.418256 3.570660 -5.515400
vn 0.999711 0.023882 0.002580
vn 0.999712 0.023882 0.002580
vn 0.999712 0.023882 0.002580
vn 0.999998 -0.001594 0.001170
vn 0.999984 -0.005616 0.001002
vn 0.999960 0.008706 0.001876
vn 0.999867 0.016252 0.001516
vn 0.999998 -0.001594 0.001170
vn 0.999960 0.008706 0.001876
vn 0.999984 -0.005616 0.001002
vn 0.999998 -0.001594 0.001170
vn 0.999989 -0.004606 0.000294
vn 0.999997 -0.002264 0.000140
vn 0.999984 -0.005616 0.001002
vn 0.999989 -0.004606 0.000294
vn 0.999997 -0.002264 0.000140
vn 0.999989 -0.004606 0.000294
vn 0.999999 -0.001673 0.000237
s off
g stabs9
usemtl blue
f 44//64 45//65 46//66
f 47//67 48//68 44//69
f 46//70 47//71 44//72
f 48//73 47//74 49//75
f 50//76 48//77 49//78
f 50//79 49//80 51//81
